<svg xmlns="http://www.w3.org/2000/svg" width="24" height="24" viewBox="0 0 50 50" fill="none">
<path d="M46.6077 20.5767H35.677L43.4039 12.8498L37.15 6.59594L29.4231 14.3229V3.39209H20.577V14.3229L12.85 6.59594L6.59618 12.8498L14.3231 20.5767H3.39233V29.4229H14.3231L6.59618 37.1498L12.85 43.4036L20.577 35.6767V46.6075H29.4231V35.6767L37.15 43.4036L43.4039 37.1498L35.677 29.4229H46.6077V20.5767Z" fill="#FDBB32"/>
<path d="M28.6462 27.3272C29.7654 26.2464 30.8847 25.1657 32.0077 24.081C32.1385 23.9541 32.2654 23.8233 32.4039 23.7003C32.6616 23.4695 32.8116 23.5849 32.4808 23.2464C31.9962 22.7503 32.3693 23.2387 32.4654 23.4272C32.5501 23.5926 32.6347 23.758 32.7193 23.9233C33.0731 24.6157 33.4231 25.3041 33.777 25.9964C33.9116 26.258 34.4731 27.0618 34.8924 26.9003C36.5154 26.281 38.1308 25.5926 39.777 25.0464C40.327 24.8657 40.8154 24.8272 41.3847 24.8657C41.5616 24.8772 41.6154 25.1118 41.2924 24.7272C41.0154 24.3964 41.1808 24.5733 41.227 24.8003C41.2924 25.1003 41.3385 25.3849 41.4731 25.6657C41.777 26.308 42.4616 26.981 43.227 26.9041C43.8962 26.8387 44.5539 26.331 45.1116 25.9926C45.6693 25.6541 46.3193 25.2426 47.0001 25.3003C47.077 25.308 47.6847 25.4233 47.6578 25.5195C47.6501 25.5464 47.5693 25.3849 47.5231 25.358C47.4962 25.258 47.4885 25.2695 47.5078 25.3964C47.5078 25.458 47.4924 25.5195 47.4693 25.581C47.3001 26.1695 48.6808 27.4272 48.8501 26.8426C49.1962 25.6426 48.0885 24.4464 47.0693 23.981C45.827 23.4157 44.7385 23.9964 43.6693 24.6541C43.4001 24.8195 43.1347 24.9849 42.8501 25.1233C42.7078 25.1926 42.5616 25.258 42.4116 25.3003C42.3808 25.308 42.2308 25.3195 42.2116 25.3426C42.3308 25.2118 42.6885 26.3195 42.6693 25.8464C42.6424 25.2464 42.3501 24.608 41.9693 24.1618C41.1731 23.2349 40.0501 23.1041 38.9308 23.431C38.127 23.6657 37.3462 24.0157 36.5654 24.3157C35.6693 24.658 34.7731 25.0003 33.8731 25.3387L34.9885 26.2426C34.5385 25.358 34.0847 24.4733 33.6347 23.5887C33.2924 22.9157 32.6462 21.6849 31.6924 21.9118C31.2885 22.008 30.9847 22.4041 30.7001 22.6772L29.6039 23.7387C28.8731 24.4464 28.1424 25.1503 27.4077 25.858C26.9539 26.2964 28.2231 27.7387 28.6539 27.3233L28.6462 27.3272Z" fill="black"/>
</svg>