<svg xmlns="http://www.w3.org/2000/svg" width="22" height="20" viewBox="0 0 28 26" fill="none">
<path d="M19.8398 2.49586C19.329 1.98486 18.7226 1.57951 18.0551 1.30294C17.3876 1.02638 16.6722 0.884033 15.9498 0.884033C15.2273 0.884033 14.5119 1.02638 13.8444 1.30294C13.1769 1.57951 12.5705 1.98486 12.0598 2.49586L10.9998 3.55586L9.93975 2.49586C8.90806 1.46417 7.50879 0.884568 6.04975 0.884568C4.59072 0.884568 3.19144 1.46417 2.15975 2.49586C1.12806 3.52755 0.548462 4.92683 0.548462 6.38586C0.548462 7.84489 1.12806 9.24417 2.15975 10.2759L3.21975 11.3359L10.9998 19.1159L18.7798 11.3359L19.8398 10.2759C20.3507 9.7651 20.7561 9.15867 21.0327 8.49121C21.3092 7.82375 21.4516 7.10835 21.4516 6.38586C21.4516 5.66337 21.3092 4.94796 21.0327 4.2805C20.7561 3.61304 20.3507 3.00661 19.8398 2.49586Z" fill="currentColor" stroke="currentColor" stroke-linecap="round" stroke-linejoin="round"/>
</svg>