<svg xmlns="http://www.w3.org/2000/svg" width="40" height="40" viewBox="0 0 52 52" fill="none">
<path fill-rule="evenodd" clip-rule="evenodd" d="M16.6207 37.8787L32.5495 12.0246C33.911 9.8148 32.8352 7.04887 30.18 7.00298C24.6064 6.90663 16.9511 9.1125 11.5024 17.9564C6.03723 26.8268 7.89501 34.0923 10.823 38.5036C12.2121 40.5963 15.2718 40.068 16.6207 37.8787ZM35.1579 13.3538L19.2291 39.2079C17.8676 41.4177 18.9434 44.1836 21.5985 44.2295C27.1722 44.3259 34.8274 42.12 40.2762 33.2761C45.7413 24.4057 43.8835 17.1402 40.9555 12.7289C39.5665 10.6362 36.5067 11.1646 35.1579 13.3538Z" fill="#D8C6B7"/>
<path d="M32.5495 12.0246L32.352 11.9029L32.5495 12.0246ZM16.6207 37.8787L16.8182 38.0004L16.6207 37.8787ZM30.18 7.00298L30.176 7.23491L30.18 7.00298ZM11.5024 17.9564L11.6999 18.0781L11.5024 17.9564ZM10.823 38.5036L11.0163 38.3753L10.823 38.5036ZM19.2291 39.2079L19.4266 39.3296L19.2291 39.2079ZM35.1579 13.3538L35.3554 13.4755L35.1579 13.3538ZM21.5985 44.2295L21.6025 43.9976L21.5985 44.2295ZM40.2762 33.2761L40.0787 33.1545L40.2762 33.2761ZM40.9555 12.7289L41.1488 12.6006V12.6006L40.9555 12.7289ZM32.352 11.9029L16.4232 37.757L16.8182 38.0004L32.747 12.1463L32.352 11.9029ZM30.176 7.23491C31.4134 7.2563 32.2648 7.90549 32.6589 8.79618C33.0561 9.6941 32.996 10.8576 32.352 11.9029L32.747 12.1463C33.4644 10.9818 33.5472 9.65745 33.0831 8.60848C32.6159 7.55227 31.6018 6.79555 30.184 6.77104L30.176 7.23491ZM11.6999 18.0781C17.0989 9.31485 24.6706 7.13975 30.176 7.23491L30.184 6.77104C24.5421 6.67352 16.8033 8.91014 11.3049 17.8347L11.6999 18.0781ZM11.0163 38.3753C8.13304 34.0315 6.28698 26.8637 11.6999 18.0781L11.3049 17.8347C5.78748 26.79 7.65698 34.1532 10.6298 38.6319L11.0163 38.3753ZM16.4232 37.757C15.7848 38.7932 14.7436 39.4319 13.707 39.5669C12.6759 39.7011 11.6557 39.3387 11.0163 38.3753L10.6298 38.6319C11.3794 39.7613 12.5836 40.181 13.7669 40.0269C14.9446 39.8736 16.1077 39.1535 16.8182 38.0004L16.4232 37.757ZM19.4266 39.3296L35.3554 13.4755L34.9604 13.2322L19.0316 39.0862L19.4266 39.3296ZM21.6025 43.9976C20.3652 43.9762 19.5137 43.327 19.1197 42.4363C18.7224 41.5384 18.7825 40.3749 19.4266 39.3296L19.0316 39.0862C18.3141 40.2507 18.2313 41.5751 18.6954 42.624C19.1627 43.6803 20.1767 44.437 21.5945 44.4615L21.6025 43.9976ZM40.0787 33.1545C34.6796 41.9177 27.1079 44.0928 21.6025 43.9976L21.5945 44.4615C27.2364 44.559 34.9752 42.3224 40.4737 33.3978L40.0787 33.1545ZM40.7622 12.8572C43.6455 17.2011 45.4916 24.3688 40.0787 33.1545L40.4737 33.3978C45.9911 24.4425 44.1216 17.0794 41.1488 12.6006L40.7622 12.8572ZM35.3554 13.4755C35.9938 12.4394 37.0349 11.8006 38.0716 11.6657C39.1027 11.5314 40.1228 11.8938 40.7622 12.8572L41.1488 12.6006C40.3992 11.4713 39.1949 11.0515 38.0117 11.2056C36.834 11.3589 35.6708 12.079 34.9604 13.2322L35.3554 13.4755Z" fill="#D8C6B7"/>
</svg>