<svg xmlns="http://www.w3.org/2000/svg" width="24" height="24" viewBox="0 0 50 50" fill="none">
<path d="M36.4192 14.596C36.0577 14.596 35.7 14.6152 35.35 14.6498C35.3846 14.296 35.4038 13.9421 35.4038 13.5806C35.4038 7.83445 30.7461 3.17676 25 3.17676C19.2538 3.17676 14.5961 7.83445 14.5961 13.5806C14.5961 13.9421 14.6153 14.2998 14.65 14.6498C14.2961 14.6152 13.9423 14.596 13.5807 14.596C7.83457 14.596 3.17688 19.2537 3.17688 24.9998C3.17688 30.746 7.83457 35.4037 13.5807 35.4037C13.9423 35.4037 14.3 35.3845 14.65 35.3498C14.6153 35.7037 14.5961 36.0575 14.5961 36.4191C14.5961 42.1652 19.2538 46.8229 25 46.8229C30.7461 46.8229 35.4038 42.1652 35.4038 36.4191C35.4038 36.0575 35.3846 35.6998 35.35 35.3498C35.7038 35.3845 36.0577 35.4037 36.4192 35.4037C42.1654 35.4037 46.8231 30.746 46.8231 24.9998C46.8231 19.2537 42.1654 14.596 36.4192 14.596Z" fill="#EEC3DD"/>
<path d="M35.4693 11.2345C36.2693 10.5538 37.127 9.89992 38.1232 9.53069C38.8116 9.27299 39.7962 9.08838 40.3693 9.67684C40.9424 10.2653 41.2193 11.2999 41.3501 12.1115C41.5116 13.0999 41.477 14.1038 41.2616 15.0807C40.8385 16.9884 39.7347 18.5961 38.1885 19.773C36.6424 20.9499 34.8808 21.6076 33.1039 22.2038C31.1924 22.8461 29.2616 23.4076 27.3924 24.1615C25.3924 24.9653 23.4539 25.9153 21.5885 26.9999C17.9308 29.1268 14.3116 31.7499 11.5501 34.9807C10.8039 35.8538 10.1308 36.7922 9.58853 37.8076C9.32314 38.3038 9.08468 38.8153 8.88468 39.3422C8.68468 39.8691 8.4116 40.4576 8.63468 40.9999C9.17699 42.3268 10.8731 42.2538 12.0424 42.123C13.2885 41.9845 14.477 41.6191 15.5693 41.0038C16.2308 40.6345 14.9078 39.2691 14.3578 39.5768C13.5808 40.0114 12.7539 40.3345 11.8808 40.5268C11.4424 40.623 10.9962 40.6768 10.5462 40.6961C10.2385 40.7114 9.64622 40.7999 9.3693 40.6538L9.95391 41.1114L10.0578 41.2499L10.1001 41.573C10.1501 40.673 10.7001 39.6538 11.1308 38.8807C11.6001 38.0345 12.1616 37.2461 12.777 36.4999C14.0347 34.9768 15.5155 33.6461 17.0462 32.3999C20.1847 29.8461 23.6655 27.723 27.3732 26.0999C29.1732 25.3115 31.027 24.6807 32.9001 24.0845C34.6193 23.5384 36.3539 22.9768 37.9462 22.1153C39.5385 21.2538 40.8847 20.1691 41.7885 18.6576C42.6924 17.1461 43.1385 15.2576 42.977 13.4384C42.7924 11.3615 41.8193 9.04992 39.8155 8.13838C37.6924 7.17299 35.5962 8.60761 34.0193 9.94607C33.5424 10.3538 34.9116 11.6845 35.4539 11.2268L35.4693 11.2345Z" fill="#1E1E1E"/>
</svg>