<svg xmlns="http://www.w3.org/2000/svg" width="24" height="24" viewBox="0 0 50 50" fill="none">
<path d="M45.7501 20.6772C45.7501 19.1003 44.7194 17.6272 42.9501 16.3541C44.7194 15.081 45.7501 13.608 45.7501 12.0349C45.7501 7.26181 36.4617 3.39258 25.0001 3.39258C13.5386 3.39258 4.25012 7.26566 4.25012 12.0349C4.25012 13.6118 5.28089 15.0849 7.05012 16.3541C5.28089 17.6272 4.25012 19.1003 4.25012 20.6772C4.25012 22.2541 5.28089 23.7272 7.05012 24.9964C5.28089 26.2695 4.25012 27.7426 4.25012 29.3195C4.25012 30.8964 5.28089 32.3695 7.05012 33.6387C5.28089 34.9118 4.25012 36.3849 4.25012 37.9618C4.25012 42.7349 13.5386 46.6041 25.0001 46.6041C36.4617 46.6041 45.7501 42.7349 45.7501 37.9618C45.7501 36.3849 44.7194 34.9118 42.9501 33.6387C44.7194 32.3657 45.7501 30.8926 45.7501 29.3195C45.7501 27.7464 44.7194 26.2695 42.9501 24.9964C44.7194 23.7233 45.7501 22.2503 45.7501 20.6772Z" fill="#EE5329"/>
<path d="M11.7153 6.91526C8.54989 8.03449 5.59604 9.68834 3.01911 11.846C2.49219 12.2883 1.73834 12.7883 1.49604 13.4653C1.21142 14.2614 1.89604 15.1422 2.47296 15.6114C3.09988 16.1191 3.86527 16.3153 4.63835 16.473C5.45373 16.6422 6.2845 16.7383 7.11527 16.7653C9.04989 16.823 10.9537 16.4614 12.7499 15.7499L11.5076 14.2806C10.0499 14.9537 8.67681 15.7883 7.41527 16.7845C6.78835 17.2806 6.18835 17.8153 5.62296 18.3845C5.05758 18.9537 4.47296 19.523 4.1345 20.2383C3.39219 21.8114 5.09604 23.323 6.53835 23.5076C8.35758 23.7383 10.2268 23.7576 12.0537 23.8768C12.4345 23.8999 12.0345 23.1691 11.9691 23.0691C11.7614 22.7576 11.4114 22.3576 11.0076 22.3345C9.44989 22.2345 7.88835 22.1345 6.33066 22.0345C6.02681 22.0153 5.71912 22.0076 5.41527 21.946C5.28835 21.9191 5.15758 21.8576 5.03065 21.8383C4.88065 21.7499 4.91527 21.796 5.1345 21.9768C5.2845 22.2153 5.34989 22.2268 5.32296 22.0076C5.38835 21.896 5.39604 21.7153 5.44989 21.5883C5.51912 21.4306 5.60758 21.2845 5.70758 21.146C5.90373 20.8691 6.13835 20.6191 6.36912 20.3691C8.16527 18.423 10.346 16.8537 12.7499 15.746C13.1307 15.5691 12.0576 14.0614 11.5076 14.2768C8.82681 15.3383 5.72681 15.5537 2.94604 14.7422C2.83065 14.7076 2.70758 14.6768 2.59988 14.6268C2.09988 14.4037 2.91142 14.9383 2.79604 15.0153C2.81911 14.9999 2.86911 14.6845 2.89988 14.6306C2.98065 14.4768 3.11527 14.3422 3.2345 14.223C3.73065 13.7268 4.28835 13.2768 4.83835 12.8422C5.94219 11.9653 7.11527 11.1768 8.33835 10.4806C9.74989 9.6768 11.2307 8.99987 12.7614 8.45757C13.3114 8.26141 12.196 6.74603 11.7153 6.91526Z" fill="#1E1E1E"/>
</svg>